<svg viewBox="0 0 280 44" fill="none" xmlns="http://www.w3.org/2000/svg" width="1120" height="176">
  <defs>
    <linearGradient id="bbt-grad" x1="0" y1="0" x2="44" y2="44" gradientUnits="userSpaceOnUse">
      <stop offset="0%" stop-color="#00D4FF" />
      <stop offset="100%" stop-color="#00FF94" />
    </linearGradient>
  </defs>
  <!-- Icon -->
  <path d="M22 3l16.5 9.5v19L22 41 5.5 31.5v-19L22 3z" fill="#0C1424" stroke="url(#bbt-grad)" stroke-width="1.2" stroke-linejoin="round" />
  <path d="M14 14h4.5c1.8 0 3.2.9 3.2 2.8 0 1.1-.6 1.9-1.6 2.4 1.2.4 2 1.4 2 2.8 0 2.1-1.5 3.2-3.5 3.2H14V14zm2.2 4.2h2c.9 0 1.3-.5 1.3-1.3s-.5-1.2-1.3-1.2h-2v2.5zm0 4.6h2.3c.9 0 1.5-.5 1.5-1.4s-.6-1.4-1.5-1.4h-2.3v2.8z" fill="url(#bbt-grad)" />
  <path d="M30 14h-4.5c-1.8 0-3.2.9-3.2 2.8 0 1.1.6 1.9 1.6 2.4-1.2.4-2 1.4-2 2.8 0 2.1 1.5 3.2 3.5 3.2H30V14zm-2.2 4.2h-2c-.9 0-1.3-.5-1.3-1.3s.5-1.2 1.3-1.2h2v2.5zm0 4.6h-2.3c-.9 0-1.5-.5-1.5-1.4s.6-1.4 1.5-1.4h2.3v2.8z" fill="url(#bbt-grad)" />
  <line x1="15" y1="30" x2="29" y2="30" stroke="url(#bbt-grad)" stroke-width="2" stroke-linecap="round" />
  <line x1="22" y1="30" x2="22" y2="34" stroke="url(#bbt-grad)" stroke-width="2" stroke-linecap="round" />
  <!-- Text -->
  <text x="54" y="20" font-family="Inter, sans-serif" font-weight="800" font-size="20" letter-spacing="-0.3" fill="#C8CDD5">BigBold</text>
  <text x="54" y="38" font-family="Inter, sans-serif" font-weight="800" font-size="20" letter-spacing="-0.3" fill="#C8CDD5">Technologies</text>
</svg>
