<svg width="180" height="180" viewBox="0 0 180 180" xmlns="http://www.w3.org/2000/svg" role="img" aria-label="Big Bold Tech">
  <defs>
    <linearGradient id="t" x1="0" y1="0" x2="180" y2="180" gradientUnits="userSpaceOnUse">
      <stop offset="0%" stop-color="#5B86FF"/>
      <stop offset="55%" stop-color="#3F66F0"/>
      <stop offset="100%" stop-color="#2342C9"/>
    </linearGradient>
    <linearGradient id="s" x1="0" y1="0" x2="0" y2="180" gradientUnits="userSpaceOnUse">
      <stop offset="0%" stop-color="#FFFFFF" stop-opacity="0.28"/>
      <stop offset="55%" stop-color="#FFFFFF" stop-opacity="0"/>
    </linearGradient>
  </defs>
  <rect x="0" y="0" width="180" height="180" fill="url(#t)"/>
  <rect x="0" y="0" width="180" height="180" fill="url(#s)"/>
  <g transform="translate(0 0) scale(3.75)">
    <path fill="#FFFFFF" fill-rule="evenodd" d="M 13 11 H 27 C 31.5 11 34 13.5 34 17.2 C 34 19.6 32.7 21.4 30.7 22.4 C 33.3 23.2 35 25.1 35 28 C 35 32.4 31.6 35 26 35 H 13 Z M 18 15.5 V 21 H 25.6 C 27.7 21 29 19.9 29 18.2 C 29 16.7 27.7 15.5 25.6 15.5 Z M 18 25 V 30.5 H 26.2 C 28.6 30.5 30 29.3 30 27.7 C 30 26.1 28.6 25 26.2 25 Z"/>
    <g transform="translate(38 9)">
      <circle r="3.6" fill="#FFFFFF" fill-opacity="0.18"/>
      <path d="M -1.6 0 H 1.6 M 0 -1.6 V 1.6" stroke="#FFFFFF" stroke-width="1.4" stroke-linecap="round" fill="none"/>
    </g>
  </g>
</svg>
